<svg xmlns="http://www.w3.org/2000/svg" viewBox="0 0 192 192">
  <rect width="192" height="192" rx="38" fill="#0F0F1A"/>
  <rect x="24" y="24" width="60" height="60" rx="10" stroke="#818CF8" stroke-width="10" fill="none"/>
  <rect x="40" y="40" width="28" height="28" rx="4" fill="#818CF8"/>
  <rect x="108" y="24" width="60" height="60" rx="10" stroke="#818CF8" stroke-width="10" fill="none"/>
  <rect x="124" y="40" width="28" height="28" rx="4" fill="#818CF8"/>
  <rect x="24" y="108" width="60" height="60" rx="10" stroke="#818CF8" stroke-width="10" fill="none"/>
  <rect x="40" y="124" width="28" height="28" rx="4" fill="#818CF8"/>
  <rect x="108" y="108" width="16" height="16" rx="3" fill="#818CF8"/>
  <rect x="132" y="108" width="16" height="16" rx="3" fill="#818CF8"/>
  <rect x="156" y="108" width="16" height="16" rx="3" fill="#C084FC"/>
  <rect x="108" y="132" width="16" height="16" rx="3" fill="#C084FC"/>
  <rect x="132" y="132" width="16" height="16" rx="3" fill="#818CF8"/>
  <rect x="156" y="132" width="16" height="16" rx="3" fill="#818CF8"/>
  <rect x="108" y="156" width="16" height="16" rx="3" fill="#818CF8"/>
  <rect x="132" y="156" width="16" height="16" rx="3" fill="#C084FC"/>
  <rect x="156" y="156" width="16" height="16" rx="3" fill="#818CF8"/>
</svg>
