<svg viewBox="0 0 512 512" fill="none" xmlns="http://www.w3.org/2000/svg">
  <rect width="512" height="512" rx="80" fill="#0D0B21"/>
  <rect x="40" y="40" width="180" height="180" rx="36" stroke="#EDEDFF" stroke-width="46"/>
  <rect x="87" y="87" width="86" height="86" rx="16" fill="#EDEDFF"/>
  <rect x="292" y="40" width="180" height="180" rx="36" stroke="#EDEDFF" stroke-width="46"/>
  <rect x="339" y="87" width="86" height="86" rx="16" fill="#EDEDFF"/>
  <rect x="40" y="292" width="180" height="180" rx="36" stroke="#EDEDFF" stroke-width="46"/>
  <rect x="87" y="339" width="86" height="86" rx="16" fill="#EDEDFF"/>
  <rect x="292" y="292" width="46" height="46" rx="8" fill="#818CF8"/>
  <rect x="366" y="292" width="46" height="46" rx="8" fill="#818CF8"/>
  <rect x="292" y="366" width="46" height="46" rx="8" fill="#818CF8"/>
  <rect x="366" y="366" width="46" height="46" rx="8" fill="#C084FC"/>
  <rect x="420" y="292" width="46" height="46" rx="8" fill="#818CF8"/>
  <rect x="292" y="420" width="46" height="46" rx="8" fill="#818CF8"/>
  <rect x="420" y="420" width="46" height="46" rx="8" fill="#818CF8"/>
  <rect x="366" y="420" width="46" height="46" rx="8" fill="#818CF8"/>
  <rect x="420" y="366" width="46" height="46" rx="8" fill="#818CF8"/>
</svg>
